<svg width="856" height="160" viewBox="0 0 856 160" fill="none" xmlns="http://www.w3.org/2000/svg">
<path fill-rule="evenodd" clip-rule="evenodd" d="M0 0H160V160H0V0ZM138.938 20.0199H18.9314V39.1837H138.938V20.0199ZM18.9315 67.3845V88.0442L78.935 64.167L138.939 88.0442V67.3845L78.935 43.5072L18.9315 67.3845ZM18.9315 140.01V116.048L78.935 71.0879L138.939 116.048V140.01L88.531 102.275V140.038H69.3389V102.275L18.9315 140.01Z" fill="#E2CDB5"/>
<path d="M232.521 138.49L240.022 129.659V29.8321L214.492 31.3605L201.33 41.5215H200L202.661 19.5012H295.78L298.441 41.5215H297.11L283.751 31.3605L258.391 29.8321V129.631L265.891 138.462V139.792H232.521V138.462V138.49Z" fill="#E2CDB5"/>
<path d="M325.98 51.5375C355.161 51.5375 366.029 73.2465 364.699 94.9272H302.601C302.94 115.957 314.771 128.127 330.65 128.127C342.99 128.127 351.679 121.306 355.84 109.107L365.35 111.768C361.331 129.599 347.519 141.487 327.48 141.487C301.44 141.487 285.081 121.306 285.081 96.4272C285.081 71.5482 300.421 51.5375 325.951 51.5375H325.98ZM346.84 86.5775C346.019 72.3974 338.688 60.3966 325.98 60.3966C313.271 60.3966 305.091 71.7464 303.11 86.5775H346.84Z" fill="#E2CDB5"/>
<path d="M376.19 138.499L382.02 130.659V66.409L376.19 57.9178V56.5876L399.229 52.4269V69.6073C404.097 58.9368 413.918 51.5778 426.089 51.5778C443.128 51.5778 455.468 62.588 455.468 81.2968V130.687L461.299 138.527V139.857H432.429V138.527L438.288 130.687V83.278C438.288 70.7678 431.439 64.4277 421.079 64.4277C410.72 64.4277 401.72 72.9188 399.229 85.9386V130.659L405.059 138.499V139.829H376.19V138.499Z" fill="#E2CDB5"/>
<path d="M472.53 138.499L478.361 130.659V66.409L472.53 57.9178V56.5876L495.57 52.4269V69.6073C500.438 58.9368 510.259 51.5778 522.43 51.5778C539.469 51.5778 551.809 62.588 551.809 81.2968V130.687L557.64 138.527V139.857H528.77V138.527L534.629 130.687V83.278C534.629 70.7678 527.779 64.4277 517.42 64.4277C507.061 64.4277 498.06 72.9188 495.57 85.9386V130.659L501.4 138.499V139.829H472.53V138.499Z" fill="#E2CDB5"/>
<path d="M567.329 118.108C567.329 103.616 578.197 94.9271 597.557 91.0778L622.266 86.2662V79.2469C622.266 67.0762 614.936 60.3966 604.718 60.3966C593.708 60.3966 585.698 67.5574 585.698 81.7659L568.857 77.9166C571.008 63.2269 584.226 51.5375 604.916 51.5375C625.606 51.5375 639.447 62.8873 639.447 82.9264V129.995L645.277 138.487V139.817H622.238V124.986C616.889 135.345 607.209 141.487 594.727 141.487C578.226 141.487 567.357 131.977 567.357 118.108H567.329ZM600.048 130.137C611.737 130.137 619.408 121.986 622.238 111.966V94.446L603.388 98.267C591.217 101.267 585.019 107.098 585.019 116.438C585.019 124.448 590.849 130.137 600.048 130.137Z" fill="#E2CDB5"/>
<path d="M701.823 138.49L704.343 130.82L688.662 106.79L672.303 130.82L674.822 138.49L674.68 139.82H648.811V138.49L658.83 130.48L682.69 97.761L659.991 63.0323L650.65 54.5411V53.2109H681.19L681.53 54.5411L679.18 62.8908L692.88 83.5808L707.23 62.8908L705.078 54.5411L705.22 53.2109H731.09V54.5411L720.929 63.0323L698.738 92.5531L723.787 130.424L733.128 138.434V139.764H702.276L701.937 138.434H701.88L701.823 138.49Z" fill="#E2CDB5"/>
<path d="M767.096 138.493V139.823H738.226V138.493L744.057 130.483V66.4033L738.226 57.9121V56.5818L761.265 52.4212V130.54L767.124 138.55H767.096V138.493ZM741.226 29.5234C741.226 23.3532 746.038 18.5133 752.236 18.5133C758.718 18.5133 763.586 23.3249 763.586 29.5234C763.586 35.722 758.746 40.5336 752.236 40.5336C745.727 40.5336 741.226 35.722 741.226 29.5234Z" fill="#E2CDB5"/>
<path d="M777.43 118.108C777.43 103.616 788.27 94.9271 807.63 91.0778L832.339 86.2662V79.2469C832.339 67.0762 825.008 60.3966 814.819 60.3966C803.809 60.3966 795.799 67.5574 795.799 81.7659L778.958 77.9166C781.109 63.2269 794.299 51.5375 815.017 51.5375C835.735 51.5375 849.548 62.8873 849.548 82.9264V129.995L855.378 138.487V139.817H832.339V124.986C826.99 135.345 817.31 141.487 804.828 141.487C788.298 141.487 777.458 131.977 777.458 118.108H777.43ZM810.149 130.137C821.838 130.137 829.509 121.986 832.339 111.966V94.446L813.489 98.267C801.318 101.267 795.119 107.098 795.119 116.438C795.119 124.448 800.95 130.137 810.149 130.137Z" fill="#E2CDB5"/>
</svg>
