<svg width="38" height="38" viewBox="0 0 38 38" fill="none" xmlns="http://www.w3.org/2000/svg">
<circle opacity="0.2" cx="19" cy="19" r="19" fill="#F4B56A"/>
<circle cx="19" cy="18.9999" r="15.3226" fill="#F4B56A"/>
<path d="M19 28.375C24.1777 28.375 28.375 24.1777 28.375 19C28.375 13.8223 24.1777 9.625 19 9.625C13.8223 9.625 9.625 13.8223 9.625 19C9.625 24.1777 13.8223 28.375 19 28.375Z" stroke="white" stroke-width="1.8" stroke-linecap="round" stroke-linejoin="round"/>
<path d="M19 25.25C19.5178 25.25 19.9375 24.8303 19.9375 24.3125C19.9375 23.7947 19.5178 23.375 19 23.375C18.4822 23.375 18.0625 23.7947 18.0625 24.3125C18.0625 24.8303 18.4822 25.25 19 25.25Z" fill="white"/>
<path d="M17.0675 13.8688C18.8125 13.0969 21.075 13.1875 21.8469 14.4375C22.6188 15.6875 22.0856 17.14 20.7625 18.2613C19.4394 19.3825 19 19.9925 19 20.875" stroke="white" stroke-width="1.8" stroke-linecap="round" stroke-linejoin="round"/>
</svg>
