<svg width="38" height="22" viewBox="0 0 38 22" fill="none" xmlns="http://www.w3.org/2000/svg">
<rect width="38" height="21.8148" rx="4" fill="#FADB13"/>
<path d="M29.5 5L22 12.3846H27.5L26.5 17L34 9.61538H28.5L29.5 5Z" stroke="#041C15" stroke-linecap="round" stroke-linejoin="round"/>
<path d="M5.26666 10.0527H16.0333" stroke="#041C15" stroke-width="1.1614" stroke-linecap="round" stroke-linejoin="round"/>
<path d="M18.3 14.6842H20V11.214C20 10.5726 19.48 10.0526 18.8386 10.0526H16.0333L13.7667 6H6.4L4.7 10.0526H4.1614C3.51998 10.0526 3 10.5726 3 11.214V14.6842H4.7" stroke="#041C15" stroke-width="1.1614" stroke-linecap="round" stroke-linejoin="round"/>
<path d="M8.09998 14.6842H14.3333" stroke="#041C15" stroke-width="1.1614" stroke-linecap="round" stroke-linejoin="round"/>
<path d="M6.40001 17C7.3389 17 8.10001 16.2224 8.10001 15.2631C8.10001 14.3039 7.3389 13.5263 6.40001 13.5263C5.46113 13.5263 4.70001 14.3039 4.70001 15.2631C4.70001 16.2224 5.46113 17 6.40001 17Z" stroke="#041C15" stroke-width="1.1614" stroke-linecap="round" stroke-linejoin="round"/>
<path d="M16.0334 17C16.9723 17 17.7334 16.2224 17.7334 15.2631C17.7334 14.3039 16.9723 13.5263 16.0334 13.5263C15.0945 13.5263 14.3334 14.3039 14.3334 15.2631C14.3334 16.2224 15.0945 17 16.0334 17Z" stroke="#041C15" stroke-width="1.1614" stroke-linecap="round" stroke-linejoin="round"/>
<path d="M10.3667 6V10.0526" stroke="#041C15" stroke-width="1.1614" stroke-linecap="round" stroke-linejoin="round"/>
</svg>
